<?xml version="1.0" encoding="utf-8" ?>
<svg baseProfile="tiny" height="500" version="1.2" width="500" xmlns="http://www.w3.org/2000/svg"
    xmlns:ev="http://www.w3.org/2001/xml-events" xmlns:xlink="http://www.w3.org/1999/xlink">
    <defs />
    <path
        d="M 183,90 L 182,91 L 176,91 L 175,92 L 171,92 L 170,93 L 166,93 L 165,94 L 163,94 L 162,95 L 159,95 L 158,96 L 156,96 L 155,97 L 153,97 L 152,98 L 150,98 L 149,99 L 148,99 L 147,100 L 145,100 L 144,101 L 143,101 L 142,102 L 141,102 L 140,103 L 139,103 L 138,104 L 137,104 L 136,105 L 135,105 L 134,106 L 133,106 L 132,107 L 131,107 L 130,108 L 129,108 L 127,110 L 126,110 L 124,112 L 123,112 L 121,114 L 120,114 L 117,117 L 116,117 L 112,121 L 111,121 L 92,140 L 92,141 L 89,144 L 89,145 L 87,147 L 87,148 L 84,151 L 84,152 L 83,153 L 83,154 L 81,156 L 81,157 L 80,158 L 80,159 L 78,161 L 78,162 L 77,163 L 77,164 L 76,165 L 76,166 L 75,167 L 75,168 L 74,169 L 74,170 L 73,171 L 73,173 L 72,174 L 72,175 L 71,176 L 71,177 L 70,178 L 70,180 L 69,181 L 69,183 L 68,184 L 68,186 L 67,187 L 67,189 L 66,190 L 66,193 L 65,194 L 65,198 L 64,199 L 64,203 L 63,204 L 63,210 L 62,211 L 62,244 L 63,245 L 63,251 L 64,252 L 64,256 L 65,257 L 65,260 L 66,261 L 66,264 L 67,265 L 67,268 L 68,269 L 68,271 L 69,272 L 69,274 L 70,275 L 70,277 L 71,278 L 71,279 L 72,280 L 72,281 L 73,282 L 73,283 L 74,284 L 74,286 L 75,287 L 75,288 L 77,290 L 77,291 L 78,292 L 78,293 L 79,294 L 79,295 L 80,296 L 80,297 L 81,298 L 81,299 L 83,301 L 83,302 L 85,304 L 85,305 L 87,307 L 87,308 L 90,311 L 90,312 L 94,316 L 94,317 L 110,333 L 111,333 L 115,337 L 116,337 L 118,339 L 119,339 L 122,342 L 123,342 L 124,343 L 125,343 L 127,345 L 128,345 L 129,346 L 130,346 L 132,348 L 133,348 L 134,349 L 134,228 L 135,227 L 135,217 L 136,216 L 136,212 L 137,211 L 137,209 L 138,208 L 138,206 L 139,205 L 139,203 L 140,202 L 140,201 L 141,200 L 141,198 L 143,196 L 143,195 L 144,194 L 144,193 L 147,190 L 147,189 L 151,185 L 151,184 L 155,180 L 156,180 L 161,175 L 162,175 L 164,173 L 165,173 L 167,171 L 168,171 L 169,170 L 170,170 L 171,169 L 172,169 L 173,168 L 175,168 L 176,167 L 178,167 L 179,166 L 181,166 L 182,165 L 185,165 L 186,164 L 190,164 L 191,163 L 207,163 L 208,164 L 213,164 L 214,165 L 216,165 L 217,166 L 220,166 L 221,167 L 222,167 L 223,168 L 225,168 L 226,169 L 227,169 L 228,170 L 229,170 L 230,171 L 231,171 L 232,172 L 233,172 L 235,174 L 236,174 L 239,177 L 240,177 L 250,187 L 250,188 L 253,191 L 253,192 L 255,194 L 255,195 L 256,196 L 256,197 L 257,198 L 257,199 L 258,200 L 258,201 L 259,202 L 259,203 L 260,204 L 260,206 L 261,207 L 261,209 L 262,210 L 262,213 L 263,214 L 263,219 L 264,220 L 264,236 L 263,237 L 263,242 L 262,243 L 262,246 L 261,247 L 261,249 L 260,250 L 260,251 L 259,252 L 259,254 L 258,255 L 258,256 L 257,257 L 257,258 L 256,259 L 256,260 L 254,262 L 254,263 L 251,266 L 251,267 L 238,280 L 237,280 L 234,283 L 233,283 L 232,284 L 231,284 L 230,285 L 229,285 L 228,286 L 227,286 L 226,287 L 225,287 L 224,288 L 222,288 L 221,289 L 220,289 L 219,290 L 216,290 L 215,291 L 213,291 L 212,292 L 200,292 L 199,293 L 195,293 L 194,294 L 194,295 L 193,296 L 193,302 L 196,305 L 210,305 L 211,304 L 216,304 L 217,303 L 221,303 L 222,302 L 224,302 L 225,301 L 227,301 L 228,300 L 230,300 L 231,299 L 232,299 L 233,298 L 234,298 L 235,297 L 236,297 L 237,296 L 238,296 L 240,294 L 241,294 L 242,293 L 243,293 L 247,289 L 248,289 L 261,276 L 261,275 L 264,272 L 264,271 L 266,269 L 266,268 L 267,267 L 267,266 L 268,265 L 268,264 L 269,263 L 269,262 L 270,261 L 270,260 L 271,259 L 271,258 L 272,257 L 272,255 L 273,254 L 273,252 L 274,251 L 274,247 L 275,246 L 275,242 L 276,241 L 276,236 L 277,235 L 277,220 L 276,219 L 276,214 L 275,213 L 275,209 L 274,208 L 274,205 L 273,204 L 273,202 L 272,201 L 272,198 L 271,197 L 271,196 L 270,195 L 270,194 L 269,193 L 269,192 L 268,191 L 268,190 L 267,189 L 267,188 L 265,186 L 265,185 L 263,183 L 263,182 L 260,179 L 260,178 L 250,168 L 249,168 L 245,164 L 244,164 L 242,162 L 241,162 L 240,161 L 239,161 L 237,159 L 236,159 L 235,158 L 233,158 L 232,157 L 231,157 L 230,156 L 229,156 L 228,155 L 226,155 L 225,154 L 223,154 L 222,153 L 219,153 L 218,152 L 213,152 L 212,151 L 203,151 L 202,150 L 196,150 L 195,151 L 186,151 L 185,152 L 181,152 L 180,153 L 176,153 L 175,154 L 173,154 L 172,155 L 170,155 L 169,156 L 168,156 L 167,157 L 166,157 L 165,158 L 163,158 L 161,160 L 160,160 L 159,161 L 158,161 L 156,163 L 155,163 L 153,165 L 152,165 L 149,168 L 148,168 L 142,174 L 142,175 L 137,180 L 137,181 L 134,184 L 134,185 L 133,186 L 133,187 L 131,189 L 131,190 L 130,191 L 130,192 L 129,193 L 129,194 L 128,195 L 128,196 L 127,197 L 127,199 L 126,200 L 126,202 L 125,203 L 125,206 L 124,207 L 124,210 L 123,211 L 123,217 L 122,218 L 122,325 L 121,326 L 118,323 L 117,323 L 105,311 L 105,310 L 100,305 L 100,304 L 97,301 L 97,300 L 94,297 L 94,296 L 92,294 L 92,293 L 91,292 L 91,291 L 90,290 L 90,289 L 88,287 L 88,286 L 87,285 L 87,284 L 86,283 L 86,282 L 85,281 L 85,280 L 84,279 L 84,277 L 83,276 L 83,275 L 82,274 L 82,273 L 81,272 L 81,271 L 80,270 L 80,267 L 79,266 L 79,264 L 78,263 L 78,261 L 77,260 L 77,257 L 76,256 L 76,251 L 75,250 L 75,245 L 74,244 L 74,235 L 73,234 L 73,219 L 74,218 L 74,210 L 75,209 L 75,203 L 76,202 L 76,199 L 77,198 L 77,195 L 78,194 L 78,191 L 79,190 L 79,188 L 80,187 L 80,186 L 81,185 L 81,183 L 82,182 L 82,180 L 83,179 L 83,178 L 84,177 L 84,176 L 85,175 L 85,174 L 86,173 L 86,172 L 87,171 L 87,170 L 88,169 L 88,168 L 89,167 L 89,166 L 90,165 L 90,164 L 92,162 L 92,161 L 93,160 L 93,159 L 95,157 L 95,156 L 98,153 L 98,152 L 100,150 L 100,149 L 107,142 L 107,141 L 108,140 L 109,140 L 120,129 L 121,129 L 125,125 L 126,125 L 128,123 L 129,123 L 131,121 L 132,121 L 133,120 L 134,120 L 136,118 L 137,118 L 138,117 L 139,117 L 140,116 L 141,116 L 142,115 L 143,115 L 144,114 L 145,114 L 146,113 L 147,113 L 148,112 L 149,112 L 150,111 L 152,111 L 153,110 L 154,110 L 155,109 L 156,109 L 157,108 L 160,108 L 161,107 L 163,107 L 164,106 L 166,106 L 167,105 L 170,105 L 171,104 L 175,104 L 176,103 L 181,103 L 182,102 L 191,102 L 192,101 L 208,101 L 209,102 L 217,102 L 218,103 L 223,103 L 224,104 L 227,104 L 228,105 L 231,105 L 232,106 L 235,106 L 236,107 L 238,107 L 239,108 L 241,108 L 242,109 L 244,109 L 245,110 L 246,110 L 247,111 L 249,111 L 250,112 L 251,112 L 252,113 L 253,113 L 254,114 L 255,114 L 256,115 L 257,115 L 258,116 L 259,116 L 260,117 L 261,117 L 263,119 L 264,119 L 265,120 L 266,120 L 268,122 L 269,122 L 272,125 L 273,125 L 276,128 L 277,128 L 282,133 L 283,133 L 296,146 L 296,147 L 299,150 L 299,151 L 302,154 L 302,155 L 305,158 L 305,159 L 306,160 L 306,161 L 308,163 L 308,164 L 309,165 L 309,166 L 311,168 L 311,169 L 312,170 L 312,172 L 313,173 L 313,174 L 314,175 L 314,176 L 315,177 L 315,178 L 316,179 L 316,181 L 317,182 L 317,183 L 318,184 L 318,186 L 319,187 L 319,189 L 320,190 L 320,192 L 321,193 L 321,196 L 322,197 L 322,200 L 323,201 L 323,205 L 324,206 L 324,212 L 325,213 L 325,242 L 324,243 L 324,249 L 323,250 L 323,254 L 322,255 L 322,258 L 321,259 L 321,261 L 320,262 L 320,265 L 319,266 L 319,268 L 318,269 L 318,270 L 317,271 L 317,273 L 316,274 L 316,276 L 315,277 L 315,278 L 314,279 L 314,280 L 313,281 L 313,282 L 312,283 L 312,284 L 311,285 L 311,286 L 310,287 L 310,288 L 309,289 L 309,290 L 307,292 L 307,293 L 306,294 L 306,295 L 304,297 L 304,298 L 301,301 L 301,302 L 298,305 L 298,306 L 291,313 L 291,314 L 285,320 L 284,320 L 278,326 L 277,326 L 274,329 L 273,329 L 270,332 L 269,332 L 267,334 L 266,334 L 265,335 L 264,335 L 262,337 L 261,337 L 260,338 L 259,338 L 258,339 L 257,339 L 256,340 L 255,340 L 254,341 L 253,341 L 252,342 L 251,342 L 250,343 L 249,343 L 248,344 L 246,344 L 245,345 L 243,345 L 242,346 L 241,346 L 240,347 L 238,347 L 237,348 L 234,348 L 233,349 L 231,349 L 230,350 L 227,350 L 226,351 L 222,351 L 221,352 L 215,352 L 214,353 L 200,353 L 199,354 L 198,353 L 192,353 L 192,365 L 213,365 L 214,364 L 220,364 L 221,363 L 226,363 L 227,362 L 230,362 L 231,361 L 234,361 L 235,360 L 238,360 L 239,359 L 241,359 L 242,358 L 244,358 L 245,357 L 247,357 L 248,356 L 250,356 L 251,355 L 253,355 L 254,354 L 255,354 L 256,353 L 257,353 L 258,352 L 259,352 L 260,351 L 261,351 L 262,350 L 263,350 L 264,349 L 265,349 L 267,347 L 268,347 L 269,346 L 270,346 L 272,344 L 273,344 L 275,342 L 276,342 L 278,340 L 279,340 L 281,338 L 282,338 L 285,335 L 286,335 L 294,327 L 295,327 L 301,321 L 301,320 L 307,314 L 307,313 L 310,310 L 310,309 L 312,307 L 312,306 L 314,304 L 314,303 L 316,301 L 316,300 L 318,298 L 318,297 L 319,296 L 319,295 L 321,293 L 321,292 L 322,291 L 322,290 L 323,289 L 323,288 L 324,287 L 324,286 L 325,285 L 325,284 L 326,283 L 326,282 L 327,281 L 327,279 L 328,278 L 328,276 L 329,275 L 329,273 L 330,272 L 330,270 L 331,269 L 331,267 L 332,266 L 332,263 L 333,262 L 333,259 L 334,258 L 334,255 L 335,254 L 335,249 L 336,248 L 336,242 L 337,241 L 337,214 L 336,213 L 336,207 L 335,206 L 335,200 L 334,199 L 334,196 L 333,195 L 333,192 L 332,191 L 332,189 L 331,188 L 331,185 L 330,184 L 330,182 L 329,181 L 329,180 L 328,179 L 328,177 L 327,176 L 327,174 L 326,173 L 326,172 L 325,171 L 325,170 L 324,169 L 324,168 L 323,167 L 323,166 L 322,165 L 322,164 L 321,163 L 321,162 L 320,161 L 320,160 L 318,158 L 318,157 L 317,156 L 317,155 L 315,153 L 315,152 L 314,151 L 314,150 L 311,147 L 311,146 L 308,143 L 308,142 L 304,138 L 304,137 L 289,122 L 288,122 L 285,119 L 284,119 L 281,116 L 280,116 L 277,113 L 276,113 L 274,111 L 273,111 L 272,110 L 271,110 L 269,108 L 268,108 L 267,107 L 266,107 L 264,105 L 262,105 L 261,104 L 260,104 L 259,103 L 258,103 L 257,102 L 256,102 L 255,101 L 254,101 L 253,100 L 252,100 L 251,99 L 249,99 L 248,98 L 246,98 L 245,97 L 244,97 L 243,96 L 241,96 L 240,95 L 237,95 L 236,94 L 233,94 L 232,93 L 229,93 L 228,92 L 224,92 L 223,91 L 217,91 L 216,90 Z"
        fill="black" stroke="black" stroke-width="20" />
</svg>